<svg xmlns="http://www.w3.org/2000/svg" width="36" height="36" viewBox="0 0 36 36"><defs><style>.cls-1{fill:#fff;}</style></defs><g id="Layer_2" data-name="Layer 2"><rect class="cls-1" width="36" height="36" rx="17.99998"/></g><g id="_2021" data-name="2021"><path d="M28,13.5c0,.82843-4.47715,1.5-10,1.5S8,14.32843,8,13.5v-3C8,9.67157,12.47715,9,18,9s10,.67157,10,1.5Zm0,9c0,.82843-4.47715,1.5-10,1.5S8,23.32843,8,22.5v3c0,.82843,4.47715,1.5,10,1.5s10-.67157,10-1.5Zm0-3c0,.82843-4.47715,1.5-10,1.5S8,20.32843,8,19.5v-3c0,.82843,4.47715,1.5,10,1.5s10-.67157,10-1.5Z"/></g></svg>