<svg width="48" height="48" fill="none" xmlns="http://www.w3.org/2000/svg"><circle cx="24" cy="24" r="24" fill="#fff"/><path d="M35.206 16.025a3.767 3.767 0 0 0-3.775 3.767c0 .888.318 1.747.896 2.422L28.7 26.122a2.83 2.83 0 0 0-1.32-.34 2.913 2.913 0 0 0-1.144.24l-4.149-4.471c.093-.22.15-.452.166-.69a2.077 2.077 0 1 0-4.148-.248 1.9 1.9 0 0 0 .166.921l-6.413 6.787a2.1 2.1 0 0 0-.69-.166 2.057 2.057 0 1 0 1.942 2.182c.02-.282-.02-.564-.116-.83l6.48-6.861c.18.07.37.112.564.124a2.15 2.15 0 0 0 .83-.108l4.148 4.422a2.813 2.813 0 0 0-.448 1.527 2.854 2.854 0 1 0 5.708 0 2.788 2.788 0 0 0-.356-1.352l3.766-4.057A3.767 3.767 0 1 0 35.247 16l-.041.025Z" fill="#000"/></svg>
